<svg id="ico-calendar" xmlns="http://www.w3.org/2000/svg" width="36.138" height="36.988" viewBox="0 0 36.138 36.988">
  <path id="Trazado_78" data-name="Trazado 78" d="M244.321,327.489a1.092,1.092,0,0,0,1.544,0l3.9-3.9a1.092,1.092,0,1,0-1.544-1.545l-3.127,3.127-1.426-1.426a1.092,1.092,0,1,0-1.545,1.545Zm0,0" transform="translate(-227.875 -301.662)" fill="#fff"/>
  <path id="Trazado_79" data-name="Trazado 79" d="M187.775,261.156a8.67,8.67,0,1,0-8.67-8.67,8.68,8.68,0,0,0,8.67,8.67Zm0-15.156a6.486,6.486,0,1,1-6.486,6.486A6.493,6.493,0,0,1,187.775,246Zm0,0" transform="translate(-169.706 -229.381)" fill="#fff"/>
  <path id="Trazado_80" data-name="Trazado 80" d="M81.606,46.326H79.614V45.092a1.092,1.092,0,0,0-2.184,0v1.233H75.284V45.092a1.092,1.092,0,0,0-2.184,0v1.233H61.039V45.092a1.092,1.092,0,0,0-2.184,0v1.233H56.709V45.092a1.092,1.092,0,0,0-2.184,0v1.233H52.532A3.536,3.536,0,0,0,49,49.858v27.6a3.536,3.536,0,0,0,3.532,3.532H81.606a3.536,3.536,0,0,0,3.532-3.532v-27.6a3.536,3.536,0,0,0-3.532-3.532Zm1.347,31.13A1.349,1.349,0,0,1,81.606,78.8H52.532a1.349,1.349,0,0,1-1.348-1.348V55.407H82.953Zm-31.769-27.6a1.349,1.349,0,0,1,1.348-1.348h1.992v1.233a1.092,1.092,0,0,0,2.184,0V48.51h2.146v1.233a1.092,1.092,0,0,0,2.184,0V48.51H73.1v1.233a1.092,1.092,0,0,0,2.184,0V48.51H77.43v1.233a1.092,1.092,0,0,0,2.184,0V48.51h1.992a1.349,1.349,0,0,1,1.348,1.348v3.365H51.184Zm0,0" transform="translate(-49 -44)" fill="#fff"/>
</svg>
