<svg id="icon-clock" xmlns="http://www.w3.org/2000/svg" width="37.18" height="37.18" viewBox="0 0 37.18 37.18">
  <path id="Trazado_81" data-name="Trazado 81" d="M126.59,108a18.59,18.59,0,1,0,18.59,18.59A18.58,18.58,0,0,0,126.59,108Zm13.747,19.679h2.628a16.341,16.341,0,0,1-4.031,9.714l-1.127-1.127a1.089,1.089,0,0,0-1.54,1.54l1.127,1.127a16.341,16.341,0,0,1-9.714,4.031v-1.9a1.089,1.089,0,1,0-2.179,0v1.9a16.341,16.341,0,0,1-9.714-4.031l1.127-1.127a1.089,1.089,0,0,0-1.54-1.54l-1.127,1.127a16.341,16.341,0,0,1-4.031-9.714h1.9a1.089,1.089,0,1,0,0-2.179h-1.9a16.341,16.341,0,0,1,4.031-9.714l1.127,1.127a1.089,1.089,0,0,0,1.54-1.54l-1.127-1.127a16.341,16.341,0,0,1,9.714-4.031v1.9a1.089,1.089,0,0,0,2.179,0v-1.9a16.341,16.341,0,0,1,9.714,4.031l-1.127,1.127a1.089,1.089,0,0,0,1.54,1.54l1.127-1.127a16.341,16.341,0,0,1,4.031,9.714h-2.628a1.089,1.089,0,1,0,0,2.179Zm0,0" transform="translate(-108 -108)" fill="#fff"/>
  <path id="Trazado_82" data-name="Trazado 82" d="M296.713,194.389h-5.784v-9.027a1.089,1.089,0,1,0-2.179,0v10.116a1.089,1.089,0,0,0,1.089,1.089h6.873a1.089,1.089,0,1,0,0-2.179Zm0,0" transform="translate(-271.249 -176.888)" fill="#fff"/>
</svg>
